<?xml version="1.0" standalone="no"?>
<!DOCTYPE svg PUBLIC "-//W3C//DTD SVG 20010904//EN"
 "http://www.w3.org/TR/2001/REC-SVG-20010904/DTD/svg10.dtd">
<svg version="1.0" xmlns="http://www.w3.org/2000/svg"
 width="300.000000pt" height="300.000000pt" viewBox="0 0 300.000000 300.000000"
 preserveAspectRatio="xMidYMid meet">
<metadata>
Created by potrace 1.10, written by Peter Selinger 2001-2011
</metadata>
<defs>
  <mask id="mask">
    <rect x="0" y="0" width="100%" height="100%" fill="white"/>
    <rect x="150" y="0" width="150" height="300" fill="black"/>
  </mask>
</defs>
<rect width="100%" height="100%" fill="#0BDB90" />
<g mask="url(#mask)" transform="translate(0.000000,300.000000) scale(0.100000,-0.100000)" fill="#0BDB90" stroke="none">
<path d="M95 2903 l-25 -28 0 -1377 0 -1377 28 -26 27 -25 1382 2 c1312 3 1383 4 1400 21 17 17 18 88 21 1403 l2 1385 -24 24 -25 25 -1380 0 -1380 0 -26 -27z m2793 -15 c9 -9 12 -330 12 -1384 0 -1234 -2 -1374 -16 -1388 -14 -14 -153 -16 -1384 -16 -1231 0 -1370 2 -1384 16 -14 14 -16 154 -16 1388 0 1054 3 1375 12 1384 17 17 2759 17 2776 0z"/>
<path d="M322 2678 c-17 -17 -17 -2339 0 -2356 17 -17 2339 -17 2356 0 17 17 17 2339 0 2356 -17 17 -2339 17 -2356 0z m50 -60 l-22 -22 0 26 c0 28 18 42 35 27 6 -6 1 -18 -13 -31z m2278 7 c0 -14 -1 -25 -3 -25 -2 0 -14 11 -27 25 l-23 25 26 0 c22 0 27 -5 27 -25z m-40 -1122 l0 -1108 -1110 0 -1110 0 0 1108 0 1107 1110 0 1110 0 0 -1107z m-2221 -1154 c-20 -12 -39 2 -39 29 l0 25 25 -23 c17 -16 22 -26 14 -31z m2265 42 c11 -18 -6 -41 -30 -41 -13 0 -24 5 -24 11 0 5 4 8 9 4 5 -3 12 4 16 15 7 21 20 26 29 11z"/>
</g>
</svg>
