<svg xmlns="http://www.w3.org/2000/svg" xmlns:v="https://svgstorm.com"
viewBox = "0 0 256 256"
width="256"
height="256">
<g fill="None" fill-opacity="0.0" stroke="#000000" stroke-opacity="0.01" stroke-width="0.3"><path d="
M 0.00 256.00 
L 256.00 256.00
L 256.00 0.00
L 0.00 0.00
L 0.00 256.00
M 231.00 24.00 
C 233.11 93.03 231.77 163.35 231.67 232.67 C 163.27 235.55 92.45 233.55 23.33 233.67 C 20.45 165.27 22.45 94.45 22.33 25.33 C 90.86 22.23 161.61 24.89 231.00 24.00 Z"/>
</g>
<g fill="None" fill-opacity="0.0" stroke="#000000" stroke-opacity="1.00" stroke-width="0.3"><path d="
M 231.00 24.00 
C 161.61 24.89 90.86 22.23 22.33 25.33 C 22.45 94.45 20.45 165.27 23.33 233.67 C 92.45 233.55 163.27 235.55 231.67 232.67 C 231.77 163.35 233.11 93.03 231.00 24.00
M 228.00 229.00 
C 160.67 229.00 93.33 229.00 26.00 229.00
C 26.52 162.34 24.96 95.05 26.78 28.78 C 92.89 27.18 160.28 28.08 226.67 28.33 C 229.77 94.20 227.11 162.28 228.00 229.00 Z"/>
</g>
<g fill="None" fill-opacity="0.0" stroke="#000000" stroke-opacity="0.01" stroke-width="0.3"><path d="
M 228.00 229.00 
C 227.11 162.28 229.77 94.20 226.67 28.33 C 160.28 28.08 92.89 27.18 26.78 28.78 C 24.96 95.05 26.52 162.34 26.00 229.00
C 93.33 229.00 160.67 229.00 228.00 229.00 Z"/>
</g>
<g fill="#FFFFFF" fill-opacity="0.01" stroke="None"><path d="
M 0.00 256.00 
L 256.00 256.00
L 256.00 0.00
L 0.00 0.00
L 0.00 256.00 Z"/>
</g>
<g fill="#0BDB90" fill-opacity="1.00" stroke="None"><path d="
M 231.00 24.00 
C 161.61 24.89 90.86 22.23 22.33 25.33 C 22.45 94.45 20.45 165.27 23.33 233.67 C 92.45 233.55 163.27 235.55 231.67 232.67 C 231.77 163.35 233.11 93.03 231.00 24.00
M 228.00 229.00 
C 160.67 229.00 93.33 229.00 26.00 229.00
C 26.52 162.34 24.96 95.05 26.78 28.78 C 92.89 27.18 160.28 28.08 226.67 28.33 C 229.77 94.20 227.11 162.28 228.00 229.00 Z"/>
</g>
<g fill="#FFFFFF" fill-opacity="0.01" stroke="None"><path d="
M 228.00 229.00 
C 227.11 162.28 229.77 94.20 226.67 28.33 C 160.28 28.08 92.89 27.18 26.78 28.78 C 24.96 95.05 26.52 162.34 26.00 229.00
C 93.33 229.00 160.67 229.00 228.00 229.00 Z"/>
</g>
</svg>