<svg xmlns="http://www.w3.org/2000/svg" xmlns:v="https://svgstorm.com"
viewBox = "0 0 563 797"
width="563"
height="797">
<g fill="None" fill-opacity="0.0" stroke="#F0F1F1" stroke-opacity="1.00" stroke-width="0.3"><path d="
M 0.00 201.00 
C 20.36 178.74 44.33 159.02 64.00 136.00
C 66.40 133.19 68.88 129.98 72.00 128.00
C 56.16 111.33 39.62 94.79 23.00 79.00
C 46.59 51.58 75.28 26.88 100.00 0.00
L 0.00 0.00
L 0.00 201.00 Z"/>
</g>
<g fill="None" fill-opacity="0.0" stroke="#3D6C7F" stroke-opacity="1.00" stroke-width="0.3"><path d="
M 64.00 136.00 
C 65.80 134.20 69.61 129.70 72.00 129.00
C 75.59 127.95 82.66 138.78 86.75 142.25 C 90.84 145.71 98.02 153.02 102.00 157.00
C 100.00 150.95 115.11 143.19 119.75 136.75 C 124.40 130.31 134.00 123.33 139.75 116.75 C 145.50 110.18 153.50 103.40 159.75 96.75 C 166.00 90.11 173.28 83.45 179.75 76.75 C 186.22 70.05 193.19 63.53 199.75 56.75 C 206.32 49.97 213.93 43.15 220.00 36.00
C 244.90 58.15 267.09 81.88 291.00 106.00
C 294.45 103.95 296.58 100.00 300.00 98.00
C 306.84 90.88 315.85 82.67 323.00 76.00
C 321.50 69.12 313.21 66.38 310.00 60.00
C 309.80 59.60 310.00 59.00 310.00 59.00
C 287.56 43.32 271.95 17.34 251.00 0.00
L 100.00 0.00
C 75.28 26.88 46.59 51.58 23.00 79.00
C 39.62 94.79 56.16 111.33 72.00 128.00
C 68.88 129.98 66.40 133.19 64.00 136.00 Z"/>
</g>
<g fill="None" fill-opacity="0.0" stroke="#6D8894" stroke-opacity="1.00" stroke-width="0.3"><path d="
M 310.00 59.00 
C 309.75 58.75 310.00 58.00 310.00 58.00
C 287.94 42.58 272.58 17.06 252.00 0.00
L 251.00 0.00
C 271.95 17.34 287.56 43.32 310.00 59.00 Z"/>
</g>
<g fill="None" fill-opacity="0.0" stroke="#F0F1F1" stroke-opacity="1.00" stroke-width="0.3"><path d="
M 310.00 58.00 
C 318.99 50.14 323.57 39.67 334.00 33.00
C 329.65 19.65 309.46 12.50 303.00 0.00
L 252.00 0.00
C 272.58 17.06 287.94 42.58 310.00 58.00 Z"/>
</g>
<g fill="None" fill-opacity="0.0" stroke="#C5C5C5" stroke-opacity="1.00" stroke-width="0.3"><path d="
M 334.00 33.00 
C 334.35 32.77 335.00 33.00 335.00 33.00
C 344.85 37.82 349.28 49.00 358.25 55.75 C 367.22 62.50 371.99 71.09 381.25 78.75 C 390.51 86.42 396.59 90.31 404.77 101.23 C 412.95 112.15 421.92 96.17 430.00 92.00
C 434.42 89.72 437.24 83.08 441.10 81.10 C 444.96 79.12 448.74 69.75 453.00 70.00
C 444.23 61.23 435.54 51.58 427.00 43.00
C 440.34 28.17 455.71 14.78 469.00 0.00
L 303.00 0.00
C 309.46 12.50 329.65 19.65 334.00 33.00 Z"/>
</g>
<g fill="None" fill-opacity="0.0" stroke="#85A8B6" stroke-opacity="1.00" stroke-width="0.3"><path d="
M 453.00 70.00 
C 478.58 95.59 505.19 120.73 530.00 147.00
C 542.07 138.72 551.46 125.40 563.00 116.00
L 563.00 0.00
L 469.00 0.00
C 455.71 14.78 440.34 28.17 427.00 43.00
C 435.54 51.58 444.23 61.23 453.00 70.00 Z"/>
</g>
<g fill="None" fill-opacity="0.0" stroke="#FEF7E2" stroke-opacity="1.00" stroke-width="0.3"><path d="
M 310.00 58.00 
C 314.44 54.90 319.22 49.86 322.75 45.75 C 326.28 41.65 332.95 37.92 335.00 33.00
C 335.00 33.00 334.35 32.77 334.00 33.00
C 323.57 39.67 318.99 50.14 310.00 58.00 Z"/>
</g>
<g fill="None" fill-opacity="0.0" stroke="#EAB99E" stroke-opacity="1.00" stroke-width="0.3"><path d="
M 310.00 58.00 
C 310.00 58.00 309.75 58.75 310.00 59.00
C 310.25 58.75 311.00 59.00 311.00 59.00
C 311.94 57.73 312.97 57.01 314.00 56.00
C 321.15 48.99 328.10 41.17 335.00 34.00
C 361.60 58.44 385.93 86.76 413.00 110.00
C 417.35 104.18 423.70 99.77 428.00 94.00
C 437.14 99.90 443.93 109.13 452.25 116.75 C 460.57 124.38 467.22 132.49 475.75 140.25 C 484.28 148.00 490.04 155.92 499.25 163.75 C 508.45 171.58 511.96 179.34 522.75 187.25 C 533.54 195.16 523.69 204.32 514.75 211.75 C 505.81 219.18 500.02 228.03 491.00 235.00
C 481.15 246.53 469.47 258.20 458.00 268.00
C 454.59 271.41 451.10 275.38 448.00 279.00
C 454.88 272.12 463.20 264.91 469.75 257.75 C 476.31 250.59 485.12 243.27 491.25 236.25 C 497.38 229.22 507.73 221.55 512.75 214.75 C 517.77 207.96 534.55 199.56 528.75 192.25 C 522.95 184.94 513.64 176.64 507.00 170.00
C 479.46 146.47 455.06 117.35 430.00 92.00
C 421.92 96.17 412.95 112.15 404.77 101.23 C 396.59 90.31 390.51 86.42 381.25 78.75 C 371.99 71.09 367.22 62.50 358.25 55.75 C 349.28 49.00 344.85 37.82 335.00 33.00
C 332.95 37.92 326.28 41.65 322.75 45.75 C 319.22 49.86 314.44 54.90 310.00 58.00 Z"/>
</g>
<g fill="None" fill-opacity="0.0" stroke="#F27832" stroke-opacity="1.00" stroke-width="0.3"><path d="
M 314.00 56.00 
C 313.20 57.31 311.80 58.30 312.00 60.00
C 315.21 60.86 315.81 65.33 320.00 64.00
C 321.24 73.34 330.29 71.20 321.25 80.25 C 312.21 89.29 303.05 98.76 294.00 108.00
C 293.86 113.25 304.99 117.14 307.75 122.25 C 310.51 127.36 317.31 131.97 321.75 136.25 C 326.18 140.53 331.16 146.17 335.70 150.30 C 340.25 154.42 345.38 160.13 350.25 164.75 C 355.12 169.37 359.48 174.46 364.23 178.77 C 368.98 183.08 373.51 188.24 378.25 192.75 C 382.99 197.26 387.45 202.17 392.25 206.75 C 397.05 211.34 401.84 216.91 407.00 221.00
C 376.41 255.42 340.72 287.12 309.00 321.00
C 320.45 330.98 332.43 342.80 342.00 354.00
C 345.21 357.76 349.16 363.06 353.00 366.00
C 354.30 366.79 355.72 367.21 357.00 368.00
C 358.52 363.19 368.81 360.58 371.75 354.75 C 374.69 348.92 381.53 345.07 385.75 339.75 C 389.98 334.44 395.88 330.52 400.25 325.25 C 404.61 319.98 409.60 316.02 414.70 311.70 C 419.79 307.37 423.54 300.99 428.30 296.30 C 433.07 291.62 438.75 286.96 443.25 282.25 C 447.75 277.53 452.80 272.44 458.00 268.00
C 469.47 258.20 481.15 246.53 491.00 235.00
C 496.29 228.81 505.44 221.99 509.30 215.30 C 513.17 208.61 527.29 203.55 527.97 195.97 C 528.65 188.39 514.50 182.19 510.25 175.75 C 506.00 169.31 496.71 163.34 491.25 156.75 C 485.78 150.16 478.35 144.67 472.25 137.75 C 466.15 130.84 459.82 126.38 453.25 118.75 C 446.67 111.13 441.40 109.75 434.25 99.75 C 427.09 89.75 419.68 109.44 413.00 110.00
C 385.93 86.76 361.60 58.44 335.00 34.00
C 328.10 41.17 321.15 48.99 314.00 56.00 Z"/>
</g>
<g fill="None" fill-opacity="0.0" stroke="#355C6A" stroke-opacity="1.00" stroke-width="0.3"><path d="
M 102.00 157.00 
C 104.35 159.35 106.25 162.08 109.00 164.00
C 130.32 149.09 145.42 125.21 165.25 108.25 C 185.08 91.28 202.03 69.75 221.00 52.00
C 243.08 70.26 262.45 93.61 284.00 113.00
C 287.40 108.40 295.54 102.63 300.00 98.00
C 296.58 100.00 294.45 103.95 291.00 106.00
C 267.09 81.88 244.90 58.15 220.00 36.00
C 213.93 43.15 206.32 49.97 199.75 56.75 C 193.19 63.53 186.22 70.05 179.75 76.75 C 173.28 83.45 166.00 90.11 159.75 96.75 C 153.50 103.40 145.50 110.18 139.75 116.75 C 134.00 123.33 124.40 130.31 119.75 136.75 C 115.11 143.19 100.00 150.95 102.00 157.00 Z"/>
</g>
<g fill="None" fill-opacity="0.0" stroke="#FEFEFE" stroke-opacity="1.00" stroke-width="0.3"><path d="
M 109.00 164.00 
C 109.23 164.16 109.00 165.00 109.00 165.00
C 103.30 176.66 88.46 183.17 80.75 193.75 C 73.05 204.34 59.53 212.22 52.00 223.00
C 60.59 235.28 74.67 244.55 86.00 252.00
C 85.10 259.44 95.09 264.29 101.00 267.00
C 102.40 274.47 109.67 281.40 117.00 283.00
C 118.12 290.46 125.82 297.97 133.00 299.00
C 131.68 303.94 136.88 305.03 138.00 309.00
C 151.96 322.96 167.21 337.04 180.00 352.00
C 192.65 366.80 208.31 379.32 221.00 394.00
C 247.92 370.24 273.45 342.72 299.00 317.00
C 298.21 316.38 297.55 314.80 297.00 314.00
C 302.65 314.12 306.49 304.88 310.00 306.00
C 310.98 296.17 318.38 298.85 323.75 291.75 C 329.12 284.65 331.18 285.39 337.75 276.75 C 344.33 268.11 357.08 257.63 364.03 249.03 C 370.98 240.42 374.25 244.56 376.00 236.00
C 382.46 235.14 385.50 227.07 391.00 224.00
C 359.71 190.61 324.93 158.97 294.00 125.00
C 291.31 122.31 286.65 118.37 285.00 115.00
C 284.80 114.60 285.00 114.00 285.00 114.00
C 284.88 113.74 284.27 113.21 284.00 113.00
C 262.45 93.61 243.08 70.26 221.00 52.00
C 202.03 69.75 185.08 91.28 165.25 108.25 C 145.42 125.21 130.32 149.09 109.00 164.00 Z"/>
</g>
<g fill="None" fill-opacity="0.0" stroke="#BE7F5A" stroke-opacity="1.00" stroke-width="0.3"><path d="
M 311.00 59.00 
C 314.34 63.77 316.27 65.79 321.25 69.75 C 326.22 73.71 323.55 78.35 318.75 81.75 C 313.95 85.15 312.21 89.59 307.75 92.75 C 303.29 95.92 301.41 101.15 296.75 103.75 C 292.09 106.35 290.01 113.57 287.00 116.00
C 291.45 120.16 295.15 125.08 299.75 129.25 C 304.36 133.42 308.76 138.44 313.25 142.75 C 317.74 147.06 321.85 151.36 326.25 155.75 C 330.65 160.14 335.45 164.81 339.75 169.25 C 344.06 173.69 349.16 178.31 353.25 182.75 C 357.33 187.20 362.65 191.28 366.25 195.75 C 369.84 200.23 377.11 204.72 379.75 209.25 C 382.39 213.78 393.00 218.13 393.00 223.00
C 393.00 227.84 382.94 231.76 380.25 236.25 C 377.55 240.73 370.41 245.27 366.75 249.75 C 363.09 254.23 357.30 258.78 353.25 263.25 C 349.19 267.72 344.50 271.76 340.25 276.25 C 336.00 280.74 331.06 285.20 326.75 289.75 C 322.44 294.30 317.49 298.61 313.25 303.25 C 309.00 307.89 303.56 311.91 300.00 317.00
C 302.50 317.90 305.55 319.88 307.00 322.00
C 314.03 322.74 321.81 336.65 327.00 341.00
C 332.21 344.72 337.40 349.40 342.00 354.00
C 332.43 342.80 320.45 330.98 309.00 321.00
C 298.46 311.81 314.53 304.14 321.75 295.75 C 328.98 287.36 338.09 279.91 345.75 271.75 C 353.41 263.60 361.88 255.77 369.75 247.75 C 377.62 239.73 385.74 231.45 394.00 224.00
C 386.71 213.43 375.17 204.41 366.25 194.75 C 357.32 185.09 346.47 175.82 337.75 166.25 C 329.03 156.68 317.25 147.28 309.25 137.75 C 301.25 128.22 281.21 118.47 294.00 108.00
C 303.05 98.76 312.21 89.29 321.25 80.25 C 330.29 71.20 321.24 73.34 320.00 64.00
C 315.81 65.33 315.21 60.86 312.00 60.00
C 311.80 58.30 313.20 57.31 314.00 56.00
C 312.97 57.01 311.94 57.73 311.00 59.00 Z"/>
</g>
<g fill="None" fill-opacity="0.0" stroke="#8B6A55" stroke-opacity="1.00" stroke-width="0.3"><path d="
M 310.00 60.00 
C 315.09 63.56 327.32 72.71 321.25 78.25 C 315.18 83.78 309.46 90.73 303.25 96.25 C 297.04 101.76 291.76 109.28 285.00 114.00
C 285.00 114.00 284.80 114.60 285.00 115.00
C 285.25 115.51 286.66 115.68 287.00 116.00
C 290.01 113.57 292.09 106.35 296.75 103.75 C 301.41 101.15 303.29 95.92 307.75 92.75 C 312.21 89.59 313.95 85.15 318.75 81.75 C 323.55 78.35 326.22 73.71 321.25 69.75 C 316.27 65.79 314.34 63.77 311.00 59.00
C 311.00 59.00 310.25 58.75 310.00 59.00
C 310.00 59.00 309.80 59.60 310.00 60.00 Z"/>
</g>
<g fill="None" fill-opacity="0.0" stroke="#5A5E5C" stroke-opacity="1.00" stroke-width="0.3"><path d="
M 300.00 98.00 
C 295.54 102.63 287.40 108.40 284.00 113.00
C 284.27 113.21 284.88 113.74 285.00 114.00
C 291.76 109.28 297.04 101.76 303.25 96.25 C 309.46 90.73 315.18 83.78 321.25 78.25 C 327.32 72.71 315.09 63.56 310.00 60.00
C 313.21 66.38 321.50 69.12 323.00 76.00
C 315.85 82.67 306.84 90.88 300.00 98.00 Z"/>
</g>
<g fill="None" fill-opacity="0.0" stroke="#F1F1F1" stroke-opacity="1.00" stroke-width="0.3"><path d="
M 430.00 92.00 
C 455.06 117.35 479.46 146.47 507.00 170.00
C 515.75 177.47 523.00 187.66 533.00 193.00
C 530.77 200.09 524.03 206.32 518.22 212.22 C 512.42 218.13 505.41 224.49 499.75 230.75 C 494.09 237.02 486.98 242.47 480.77 248.77 C 474.56 255.07 467.86 261.08 462.23 267.23 C 456.60 273.38 451.32 277.96 445.23 284.23 C 439.15 290.51 432.25 296.28 426.77 302.77 C 421.29 309.26 413.64 315.21 408.25 321.25 C 402.86 327.30 394.97 334.05 389.92 339.92 C 384.87 345.79 370.71 354.97 382.00 357.00
C 379.28 356.83 376.33 357.61 374.00 356.00
C 369.65 360.76 365.91 366.32 360.00 369.00
C 359.53 369.13 359.00 369.00 359.00 369.00
C 357.39 369.10 357.99 368.60 357.00 368.00
C 355.72 367.21 354.30 366.79 353.00 366.00
C 344.07 360.57 335.16 350.88 328.00 344.00
C 328.00 349.38 317.70 353.02 314.75 357.75 C 311.80 362.48 304.85 367.07 300.75 371.75 C 296.65 376.43 291.87 380.79 287.25 385.25 C 282.63 389.70 277.70 394.60 273.25 399.25 C 268.79 403.89 263.47 408.38 259.08 413.08 C 254.70 417.78 250.25 421.65 245.75 426.75 C 241.25 431.85 236.27 436.06 231.75 440.75 C 227.24 445.44 221.99 449.96 218.00 455.00
C 192.93 434.08 171.40 408.69 148.00 387.00
C 140.25 394.75 131.16 407.76 121.00 412.00
C 120.84 412.23 119.49 412.08 119.00 412.00
C 111.46 410.79 108.19 400.33 101.75 396.25 C 95.31 392.17 91.01 383.98 84.75 379.25 C 78.49 374.52 73.15 367.97 67.25 362.75 C 61.34 357.54 55.54 351.47 52.00 346.00
C 42.71 337.48 34.58 327.19 25.00 319.00
C 18.57 313.50 12.91 306.91 7.00 301.00
C 4.91 298.91 2.23 296.86 0.00 295.00
L 0.00 797.00
L 563.00 797.00
L 563.00 116.00
C 551.46 125.40 542.07 138.72 530.00 147.00
C 505.19 120.73 478.58 95.59 453.00 70.00
C 448.74 69.75 444.96 79.12 441.10 81.10 C 437.24 83.08 434.42 89.72 430.00 92.00 Z"/>
</g>
<g fill="None" fill-opacity="0.0" stroke="#D48558" stroke-opacity="1.00" stroke-width="0.3"><path d="
M 413.00 110.00 
C 419.68 109.44 427.09 89.75 434.25 99.75 C 441.40 109.75 446.67 111.13 453.25 118.75 C 459.82 126.38 466.15 130.84 472.25 137.75 C 478.35 144.67 485.78 150.16 491.25 156.75 C 496.71 163.34 506.00 169.31 510.25 175.75 C 514.50 182.19 528.65 188.39 527.97 195.97 C 527.29 203.55 513.17 208.61 509.30 215.30 C 505.44 221.99 496.29 228.81 491.00 235.00
C 500.02 228.03 505.81 219.18 514.75 211.75 C 523.69 204.32 533.54 195.16 522.75 187.25 C 511.96 179.34 508.45 171.58 499.25 163.75 C 490.04 155.92 484.28 148.00 475.75 140.25 C 467.22 132.49 460.57 124.38 452.25 116.75 C 443.93 109.13 437.14 99.90 428.00 94.00
C 423.70 99.77 417.35 104.18 413.00 110.00 Z"/>
</g>
<g fill="None" fill-opacity="0.0" stroke="#C7652D" stroke-opacity="1.00" stroke-width="0.3"><path d="
M 309.00 321.00 
C 340.72 287.12 376.41 255.42 407.00 221.00
C 401.84 216.91 397.05 211.34 392.25 206.75 C 387.45 202.17 382.99 197.26 378.25 192.75 C 373.51 188.24 368.98 183.08 364.23 178.77 C 359.48 174.46 355.12 169.37 350.25 164.75 C 345.38 160.13 340.25 154.42 335.70 150.30 C 331.16 146.17 326.18 140.53 321.75 136.25 C 317.31 131.97 310.51 127.36 307.75 122.25 C 304.99 117.14 293.86 113.25 294.00 108.00
C 281.21 118.47 301.25 128.22 309.25 137.75 C 317.25 147.28 329.03 156.68 337.75 166.25 C 346.47 175.82 357.32 185.09 366.25 194.75 C 375.17 204.41 386.71 213.43 394.00 224.00
C 385.74 231.45 377.62 239.73 369.75 247.75 C 361.88 255.77 353.41 263.60 345.75 271.75 C 338.09 279.91 328.98 287.36 321.75 295.75 C 314.53 304.14 298.46 311.81 309.00 321.00 Z"/>
</g>
<g fill="None" fill-opacity="0.0" stroke="#EAC1A6" stroke-opacity="1.00" stroke-width="0.3"><path d="
M 294.00 125.00 
C 326.75 157.75 360.11 190.48 393.00 223.00
C 393.00 218.13 382.39 213.78 379.75 209.25 C 377.11 204.72 369.84 200.23 366.25 195.75 C 362.65 191.28 357.33 187.20 353.25 182.75 C 349.16 178.31 344.06 173.69 339.75 169.25 C 335.45 164.81 330.65 160.14 326.25 155.75 C 321.85 151.36 317.74 147.06 313.25 142.75 C 308.76 138.44 304.36 133.42 299.75 129.25 C 295.15 125.08 291.45 120.16 287.00 116.00
C 286.66 115.68 285.25 115.51 285.00 115.00
C 286.65 118.37 291.31 122.31 294.00 125.00 Z"/>
</g>
<g fill="None" fill-opacity="0.0" stroke="#FEF5E8" stroke-opacity="1.00" stroke-width="0.3"><path d="
M 299.00 317.00 
C 299.16 316.77 300.00 317.00 300.00 317.00
C 303.56 311.91 309.00 307.89 313.25 303.25 C 317.49 298.61 322.44 294.30 326.75 289.75 C 331.06 285.20 336.00 280.74 340.25 276.25 C 344.50 271.76 349.19 267.72 353.25 263.25 C 357.30 258.78 363.09 254.23 366.75 249.75 C 370.41 245.27 377.55 240.73 380.25 236.25 C 382.94 231.76 393.00 227.84 393.00 223.00
C 360.11 190.48 326.75 157.75 294.00 125.00
C 324.93 158.97 359.71 190.61 391.00 224.00
C 385.50 227.07 382.46 235.14 376.00 236.00
C 374.25 244.56 370.98 240.42 364.03 249.03 C 357.08 257.63 344.33 268.11 337.75 276.75 C 331.18 285.39 329.12 284.65 323.75 291.75 C 318.38 298.85 310.98 296.17 310.00 306.00
C 306.49 304.88 302.65 314.12 297.00 314.00
C 297.55 314.80 298.21 316.38 299.00 317.00 Z"/>
</g>
<g fill="None" fill-opacity="0.0" stroke="#2A4340" stroke-opacity="1.00" stroke-width="0.3"><path d="
M 72.00 129.00 
C 71.81 132.52 81.83 136.62 84.25 140.75 C 86.67 144.88 92.88 148.87 96.25 152.75 C 99.62 156.64 104.69 161.32 108.00 165.00
C 108.16 164.77 109.00 165.00 109.00 165.00
C 109.00 165.00 109.23 164.16 109.00 164.00
C 106.25 162.08 104.35 159.35 102.00 157.00
C 98.02 153.02 90.84 145.71 86.75 142.25 C 82.66 138.78 75.59 127.95 72.00 129.00 Z"/>
</g>
<g fill="None" fill-opacity="0.0" stroke="#1D260F" stroke-opacity="1.00" stroke-width="0.3"><path d="
M 64.00 136.00 
C 44.33 159.02 20.36 178.74 0.00 201.00
L 0.00 267.00
C 5.03 266.36 12.34 259.84 16.75 258.75 C 21.15 257.65 28.47 249.94 32.00 252.00
C 32.17 251.57 32.00 251.00 32.00 251.00
C 33.17 248.32 40.90 241.65 43.23 239.23 C 45.56 236.81 53.12 228.79 56.00 229.00
C 54.51 227.51 51.80 224.92 51.00 223.00
C 54.29 215.12 64.69 210.74 69.75 203.75 C 74.81 196.76 83.18 191.59 88.75 184.75 C 94.33 177.91 102.94 172.24 108.00 165.00
C 104.69 161.32 99.62 156.64 96.25 152.75 C 92.88 148.87 86.67 144.88 84.25 140.75 C 81.83 136.62 71.81 132.52 72.00 129.00
C 69.61 129.70 65.80 134.20 64.00 136.00 Z"/>
</g>
<g fill="None" fill-opacity="0.0" stroke="#94968D" stroke-opacity="1.00" stroke-width="0.3"><path d="
M 51.00 223.00 
C 51.07 223.18 52.00 223.00 52.00 223.00
C 59.53 212.22 73.05 204.34 80.75 193.75 C 88.46 183.17 103.30 176.66 109.00 165.00
C 109.00 165.00 108.16 164.77 108.00 165.00
C 102.94 172.24 94.33 177.91 88.75 184.75 C 83.18 191.59 74.81 196.76 69.75 203.75 C 64.69 210.74 54.29 215.12 51.00 223.00 Z"/>
</g>
<g fill="None" fill-opacity="0.0" stroke="#FBEADA" stroke-opacity="1.00" stroke-width="0.3"><path d="
M 448.00 279.00 
C 433.21 296.30 414.74 310.75 400.00 328.00
C 387.86 342.20 370.65 353.76 360.00 369.00
C 365.91 366.32 369.65 360.76 374.00 356.00
C 376.33 357.61 379.28 356.83 382.00 357.00
C 370.71 354.97 384.87 345.79 389.92 339.92 C 394.97 334.05 402.86 327.30 408.25 321.25 C 413.64 315.21 421.29 309.26 426.77 302.77 C 432.25 296.28 439.15 290.51 445.23 284.23 C 451.32 277.96 456.60 273.38 462.23 267.23 C 467.86 261.08 474.56 255.07 480.77 248.77 C 486.98 242.47 494.09 237.02 499.75 230.75 C 505.41 224.49 512.42 218.13 518.22 212.22 C 524.03 206.32 530.77 200.09 533.00 193.00
C 523.00 187.66 515.75 177.47 507.00 170.00
C 513.64 176.64 522.95 184.94 528.75 192.25 C 534.55 199.56 517.77 207.96 512.75 214.75 C 507.73 221.55 497.38 229.22 491.25 236.25 C 485.12 243.27 476.31 250.59 469.75 257.75 C 463.20 264.91 454.88 272.12 448.00 279.00 Z"/>
</g>
<g fill="None" fill-opacity="0.0" stroke="#F7F9E9" stroke-opacity="1.00" stroke-width="0.3"><path d="
M 56.00 229.00 
C 60.73 233.73 65.96 238.69 71.00 243.00
C 94.52 263.10 116.17 287.17 138.00 309.00
C 136.88 305.03 131.68 303.94 133.00 299.00
C 125.82 297.97 118.12 290.46 117.00 283.00
C 109.67 281.40 102.40 274.47 101.00 267.00
C 95.09 264.29 85.10 259.44 86.00 252.00
C 74.67 244.55 60.59 235.28 52.00 223.00
C 52.00 223.00 51.07 223.18 51.00 223.00
C 51.80 224.92 54.51 227.51 56.00 229.00 Z"/>
</g>
<g fill="None" fill-opacity="0.0" stroke="#334010" stroke-opacity="1.00" stroke-width="0.3"><path d="
M 32.00 251.00 
C 36.62 247.27 48.12 250.60 54.00 250.00 C 59.88 249.40 72.15 248.16 75.00 253.00
C 75.83 251.07 77.07 252.11 78.00 251.00
C 75.58 248.58 73.37 245.37 71.00 243.00
C 65.96 238.69 60.73 233.73 56.00 229.00
C 53.12 228.79 45.56 236.81 43.23 239.23 C 40.90 241.65 33.17 248.32 32.00 251.00 Z"/>
</g>
<g fill="None" fill-opacity="0.0" stroke="#ffffff" stroke-opacity="1.00" stroke-width="0.3"><path d="
M 78.00 251.00 
C 102.10 275.10 128.88 298.12 151.00 324.00
C 160.00 333.00 171.71 341.57 179.00 352.00
C 179.25 351.75 180.00 352.00 180.00 352.00
C 167.21 337.04 151.96 322.96 138.00 309.00
C 116.17 287.17 94.52 263.10 71.00 243.00
C 73.37 245.37 75.58 248.58 78.00 251.00 Z"/>
</g>
<g fill="None" fill-opacity="0.0" stroke="#5D700E" stroke-opacity="1.00" stroke-width="0.3"><path d="
M 32.00 251.00 
C 32.00 251.00 32.17 251.57 32.00 252.00
C 25.43 268.73 14.38 283.25 8.00 300.00
C 9.70 300.68 12.48 307.41 15.75 309.25 C 19.02 311.08 22.40 316.40 25.00 319.00
C 34.58 327.19 42.71 337.48 52.00 346.00
C 52.83 346.76 54.22 347.28 55.00 348.00
C 58.11 348.34 63.66 341.79 67.23 340.23 C 70.80 338.66 71.62 329.67 74.30 326.31 C 76.99 322.94 78.46 316.67 80.32 312.32 C 82.18 307.97 85.56 302.83 87.25 298.25 C 88.95 293.68 92.45 287.87 91.00 283.00
C 100.32 283.52 106.14 300.19 114.00 297.00
C 113.69 305.67 123.20 311.32 129.75 318.25 C 136.31 325.18 143.12 332.08 149.77 338.23 C 156.41 344.38 162.79 351.70 170.00 358.00
C 165.23 363.29 159.69 373.34 151.00 376.00
C 153.86 379.33 148.22 379.92 148.00 383.00
C 157.63 373.37 167.89 360.76 179.00 353.00
C 179.20 352.60 179.00 352.00 179.00 352.00
C 168.90 344.94 158.94 333.29 151.00 324.00
C 128.88 298.12 102.10 275.10 78.00 251.00
C 77.07 252.11 75.83 251.07 75.00 253.00
C 72.15 248.16 59.88 249.40 54.00 250.00 C 48.12 250.60 36.62 247.27 32.00 251.00 Z"/>
</g>
<g fill="None" fill-opacity="0.0" stroke="#364411" stroke-opacity="1.00" stroke-width="0.3"><path d="
M 0.00 267.00 
L 0.00 295.00
C 2.23 296.86 4.91 298.91 7.00 301.00
C 7.29 301.06 7.87 300.35 8.00 300.00
C 14.38 283.25 25.43 268.73 32.00 252.00
C 28.47 249.94 21.15 257.65 16.75 258.75 C 12.34 259.84 5.03 266.36 0.00 267.00 Z"/>
</g>
<g fill="None" fill-opacity="0.0" stroke="#D48152" stroke-opacity="1.00" stroke-width="0.3"><path d="
M 357.00 368.00 
C 357.99 368.60 357.39 369.10 359.00 369.00
C 362.47 360.68 373.79 355.52 379.25 348.25 C 384.70 340.98 393.62 334.38 400.00 328.00
C 414.74 310.75 433.21 296.30 448.00 279.00
C 451.10 275.38 454.59 271.41 458.00 268.00
C 452.80 272.44 447.75 277.53 443.25 282.25 C 438.75 286.96 433.07 291.62 428.30 296.30 C 423.54 300.99 419.79 307.37 414.70 311.70 C 409.60 316.02 404.61 319.98 400.25 325.25 C 395.88 330.52 389.98 334.44 385.75 339.75 C 381.53 345.07 374.69 348.92 371.75 354.75 C 368.81 360.58 358.52 363.19 357.00 368.00 Z"/>
</g>
<g fill="None" fill-opacity="0.0" stroke="#6B8D0F" stroke-opacity="1.00" stroke-width="0.3"><path d="
M 55.00 348.00 
C 63.59 355.89 71.13 365.42 80.00 373.00
C 89.98 381.53 98.80 391.80 108.00 401.00
C 111.79 404.24 115.21 409.06 119.00 412.00
C 119.49 412.08 120.84 412.23 121.00 412.00
C 121.23 411.66 121.00 411.00 121.00 411.00
C 123.67 405.53 130.12 401.83 134.25 397.25 C 138.38 392.67 143.67 387.33 148.00 383.00
C 148.22 379.92 153.86 379.33 151.00 376.00
C 159.69 373.34 165.23 363.29 170.00 358.00
C 162.79 351.70 156.41 344.38 149.77 338.23 C 143.12 332.08 136.31 325.18 129.75 318.25 C 123.20 311.32 113.69 305.67 114.00 297.00
C 106.14 300.19 100.32 283.52 91.00 283.00
C 92.45 287.87 88.95 293.68 87.25 298.25 C 85.56 302.83 82.18 307.97 80.32 312.32 C 78.46 316.67 76.99 322.94 74.30 326.31 C 71.62 329.67 70.80 338.66 67.23 340.23 C 63.66 341.79 58.11 348.34 55.00 348.00 Z"/>
</g>
<g fill="None" fill-opacity="0.0" stroke="#79844A" stroke-opacity="1.00" stroke-width="0.3"><path d="
M 7.00 301.00 
C 12.91 306.91 18.57 313.50 25.00 319.00
C 22.40 316.40 19.02 311.08 15.75 309.25 C 12.48 307.41 9.70 300.68 8.00 300.00
C 7.87 300.35 7.29 301.06 7.00 301.00 Z"/>
</g>
<g fill="None" fill-opacity="0.0" stroke="#A5A5A3" stroke-opacity="1.00" stroke-width="0.3"><path d="
M 180.00 352.00 
C 180.00 352.00 179.25 351.75 179.00 352.00
C 179.00 352.00 179.20 352.60 179.00 353.00
C 177.86 355.34 174.78 358.22 173.00 360.00
C 172.85 360.45 172.76 361.69 173.00 362.00
C 186.32 379.21 206.70 393.68 222.00 408.00
C 249.83 379.33 278.38 350.79 307.00 323.00
C 306.76 322.68 307.00 322.00 307.00 322.00
C 305.55 319.88 302.50 317.90 300.00 317.00
C 300.00 317.00 299.16 316.77 299.00 317.00
C 273.45 342.72 247.92 370.24 221.00 394.00
C 208.31 379.32 192.65 366.80 180.00 352.00 Z"/>
</g>
<g fill="None" fill-opacity="0.0" stroke="#DFB9A3" stroke-opacity="1.00" stroke-width="0.3"><path d="
M 307.00 323.00 
C 310.06 327.01 316.04 331.48 320.00 335.00
C 322.23 336.99 324.61 339.29 327.00 341.00
C 321.81 336.65 314.03 322.74 307.00 322.00
C 307.00 322.00 306.76 322.68 307.00 323.00 Z"/>
</g>
<g fill="None" fill-opacity="0.0" stroke="#C6C6C6" stroke-opacity="1.00" stroke-width="0.3"><path d="
M 173.00 362.00 
C 168.29 367.27 157.31 372.10 160.00 380.00
C 155.82 373.82 152.15 383.80 148.00 387.00
C 171.40 408.69 192.93 434.08 218.00 455.00
C 221.99 449.96 227.24 445.44 231.75 440.75 C 236.27 436.06 241.25 431.85 245.75 426.75 C 250.25 421.65 254.70 417.78 259.08 413.08 C 263.47 408.38 268.79 403.89 273.25 399.25 C 277.70 394.60 282.63 389.70 287.25 385.25 C 291.87 380.79 296.65 376.43 300.75 371.75 C 304.85 367.07 311.80 362.48 314.75 357.75 C 317.70 353.02 328.00 349.38 328.00 344.00
C 325.20 341.31 322.65 337.76 320.00 335.00
C 316.04 331.48 310.06 327.01 307.00 323.00
C 278.38 350.79 249.83 379.33 222.00 408.00
C 206.70 393.68 186.32 379.21 173.00 362.00 Z"/>
</g>
<g fill="None" fill-opacity="0.0" stroke="#7A844E" stroke-opacity="1.00" stroke-width="0.3"><path d="
M 179.00 352.00 
C 171.71 341.57 160.00 333.00 151.00 324.00
C 158.94 333.29 168.90 344.94 179.00 352.00 Z"/>
</g>
<g fill="None" fill-opacity="0.0" stroke="#F0BC9E" stroke-opacity="1.00" stroke-width="0.3"><path d="
M 359.00 369.00 
C 359.00 369.00 359.53 369.13 360.00 369.00
C 370.65 353.76 387.86 342.20 400.00 328.00
C 393.62 334.38 384.70 340.98 379.25 348.25 C 373.79 355.52 362.47 360.68 359.00 369.00 Z"/>
</g>
<g fill="None" fill-opacity="0.0" stroke="#F5DDC7" stroke-opacity="1.00" stroke-width="0.3"><path d="
M 328.00 344.00 
C 335.16 350.88 344.07 360.57 353.00 366.00
C 349.16 363.06 345.21 357.76 342.00 354.00
C 337.40 349.40 332.21 344.72 327.00 341.00
C 324.61 339.29 322.23 336.99 320.00 335.00
C 322.65 337.76 325.20 341.31 328.00 344.00 Z"/>
</g>
<g fill="None" fill-opacity="0.0" stroke="#E8F1D2" stroke-opacity="1.00" stroke-width="0.3"><path d="
M 119.00 412.00 
C 115.21 409.06 111.79 404.24 108.00 401.00
C 98.02 392.47 89.20 382.20 80.00 373.00
C 71.13 365.42 63.59 355.89 55.00 348.00
C 54.22 347.28 52.83 346.76 52.00 346.00
C 55.54 351.47 61.34 357.54 67.25 362.75 C 73.15 367.97 78.49 374.52 84.75 379.25 C 91.01 383.98 95.31 392.17 101.75 396.25 C 108.19 400.33 111.46 410.79 119.00 412.00 Z"/>
</g>
<g fill="None" fill-opacity="0.0" stroke="#8C9B5E" stroke-opacity="1.00" stroke-width="0.3"><path d="
M 148.00 383.00 
C 143.67 387.33 138.38 392.67 134.25 397.25 C 130.12 401.83 123.67 405.53 121.00 411.00
C 130.73 404.21 138.04 393.94 146.75 385.75 C 155.47 377.57 164.60 368.40 173.00 360.00
C 174.78 358.22 177.86 355.34 179.00 353.00
C 167.89 360.76 157.63 373.37 148.00 383.00 Z"/>
</g>
<g fill="None" fill-opacity="0.0" stroke="#D7DEC0" stroke-opacity="1.00" stroke-width="0.3"><path d="
M 121.00 411.00 
C 121.00 411.00 121.23 411.66 121.00 412.00
C 131.16 407.76 140.25 394.75 148.00 387.00
C 152.15 383.80 155.82 373.82 160.00 380.00
C 157.31 372.10 168.29 367.27 173.00 362.00
C 172.76 361.69 172.85 360.45 173.00 360.00
C 164.60 368.40 155.47 377.57 146.75 385.75 C 138.04 393.94 130.73 404.21 121.00 411.00 Z"/>
</g>
<g fill="None" fill-opacity="0.0" stroke="#B4C585" stroke-opacity="1.00" stroke-width="0.3"><path d="
M 108.00 401.00 
C 98.80 391.80 89.98 381.53 80.00 373.00
C 89.20 382.20 98.02 392.47 108.00 401.00 Z"/>
</g>
<!-- fondo parte superior -->
<g fill="#FFFFFF" fill-opacity="1.00" stroke="None">
<path d="
M 0.00 201.00 
C 20.36 178.74 44.33 159.02 64.00 136.00
C 66.40 133.19 68.88 129.98 72.00 128.00
C 56.16 111.33 39.62 94.79 23.00 79.00
C 46.59 51.58 75.28 26.88 100.00 0.00
L 0.00 0.00
L 0.00 201.00 Z"/>
</g>
<g fill="#0BDB90" fill-opacity="1.00" stroke="None">
<path d="
M 64.00 136.00 
C 65.80 134.20 69.61 129.70 72.00 129.00
C 75.59 127.95 82.66 138.78 86.75 142.25 C 90.84 145.71 98.02 153.02 102.00 157.00
C 100.00 150.95 115.11 143.19 119.75 136.75 C 124.40 130.31 134.00 123.33 139.75 116.75 C 145.50 110.18 153.50 103.40 159.75 96.75 C 166.00 90.11 173.28 83.45 179.75 76.75 C 186.22 70.05 193.19 63.53 199.75 56.75 C 206.32 49.97 213.93 43.15 220.00 36.00
C 244.90 58.15 267.09 81.88 291.00 106.00
C 294.45 103.95 296.58 100.00 300.00 98.00
C 306.84 90.88 315.85 82.67 323.00 76.00
C 321.50 69.12 313.21 66.38 310.00 60.00
C 309.80 59.60 310.00 59.00 310.00 59.00
C 287.56 43.32 271.95 17.34 251.00 0.00
L 100.00 0.00
C 75.28 26.88 46.59 51.58 23.00 79.00
C 39.62 94.79 56.16 111.33 72.00 128.00
C 68.88 129.98 66.40 133.19 64.00 136.00 Z"/>
</g>
<g fill="#0BDB90" fill-opacity="1.00" stroke="None">
<path d="
M 310.00 59.00 
C 309.75 58.75 310.00 58.00 310.00 58.00
C 287.94 42.58 272.58 17.06 252.00 0.00
L 251.00 0.00
C 271.95 17.34 287.56 43.32 310.00 59.00 Z"/>
</g>
<!-- fondo parte superior -->
<g fill="#FFFFFF" fill-opacity="1.00" stroke="None">
<path d="
M 310.00 58.00 
C 318.99 50.14 323.57 39.67 334.00 33.00
C 329.65 19.65 309.46 12.50 303.00 0.00
L 252.00 0.00
C 272.58 17.06 287.94 42.58 310.00 58.00 Z"/>
</g>
<g fill="#0BDB90" fill-opacity="0.6" stroke="None">
<path d="
M 334.00 33.00 
C 334.35 32.77 335.00 33.00 335.00 33.00
C 344.85 37.82 349.28 49.00 358.25 55.75 C 367.22 62.50 371.99 71.09 381.25 78.75 C 390.51 86.42 396.59 90.31 404.77 101.23 C 412.95 112.15 421.92 96.17 430.00 92.00
C 434.42 89.72 437.24 83.08 441.10 81.10 C 444.96 79.12 448.74 69.75 453.00 70.00
C 444.23 61.23 435.54 51.58 427.00 43.00
C 440.34 28.17 455.71 14.78 469.00 0.00
L 303.00 0.00
C 309.46 12.50 329.65 19.65 334.00 33.00 Z"/>
</g>
<g fill="#0BDB90" fill-opacity="1.00" stroke="None">
<path d="
M 453.00 70.00 
C 478.58 95.59 505.19 120.73 530.00 147.00
C 542.07 138.72 551.46 125.40 563.00 116.00
L 563.00 0.00
L 469.00 0.00
C 455.71 14.78 440.34 28.17 427.00 43.00
C 435.54 51.58 444.23 61.23 453.00 70.00 Z"/>
</g>
<g fill="#0BDB90" fill-opacity="1.00" stroke="None">
<path d="
M 310.00 58.00 
C 314.44 54.90 319.22 49.86 322.75 45.75 C 326.28 41.65 332.95 37.92 335.00 33.00
C 335.00 33.00 334.35 32.77 334.00 33.00
C 323.57 39.67 318.99 50.14 310.00 58.00 Z"/>
</g>
<g fill="#0BDB90" fill-opacity="1.00" stroke="None">
<path d="
M 310.00 58.00 
C 310.00 58.00 309.75 58.75 310.00 59.00
C 310.25 58.75 311.00 59.00 311.00 59.00
C 311.94 57.73 312.97 57.01 314.00 56.00
C 321.15 48.99 328.10 41.17 335.00 34.00
C 361.60 58.44 385.93 86.76 413.00 110.00
C 417.35 104.18 423.70 99.77 428.00 94.00
C 437.14 99.90 443.93 109.13 452.25 116.75 C 460.57 124.38 467.22 132.49 475.75 140.25 C 484.28 148.00 490.04 155.92 499.25 163.75 C 508.45 171.58 511.96 179.34 522.75 187.25 C 533.54 195.16 523.69 204.32 514.75 211.75 C 505.81 219.18 500.02 228.03 491.00 235.00
C 481.15 246.53 469.47 258.20 458.00 268.00
C 454.59 271.41 451.10 275.38 448.00 279.00
C 454.88 272.12 463.20 264.91 469.75 257.75 C 476.31 250.59 485.12 243.27 491.25 236.25 C 497.38 229.22 507.73 221.55 512.75 214.75 C 517.77 207.96 534.55 199.56 528.75 192.25 C 522.95 184.94 513.64 176.64 507.00 170.00
C 479.46 146.47 455.06 117.35 430.00 92.00
C 421.92 96.17 412.95 112.15 404.77 101.23 C 396.59 90.31 390.51 86.42 381.25 78.75 C 371.99 71.09 367.22 62.50 358.25 55.75 C 349.28 49.00 344.85 37.82 335.00 33.00
C 332.95 37.92 326.28 41.65 322.75 45.75 C 319.22 49.86 314.44 54.90 310.00 58.00 Z"/>
</g>
<g fill="#0BDB90" fill-opacity="1.00" stroke="None">
<path d="
M 314.00 56.00 
C 313.20 57.31 311.80 58.30 312.00 60.00
C 315.21 60.86 315.81 65.33 320.00 64.00
C 321.24 73.34 330.29 71.20 321.25 80.25 C 312.21 89.29 303.05 98.76 294.00 108.00
C 293.86 113.25 304.99 117.14 307.75 122.25 C 310.51 127.36 317.31 131.97 321.75 136.25 C 326.18 140.53 331.16 146.17 335.70 150.30 C 340.25 154.42 345.38 160.13 350.25 164.75 C 355.12 169.37 359.48 174.46 364.23 178.77 C 368.98 183.08 373.51 188.24 378.25 192.75 C 382.99 197.26 387.45 202.17 392.25 206.75 C 397.05 211.34 401.84 216.91 407.00 221.00
C 376.41 255.42 340.72 287.12 309.00 321.00
C 320.45 330.98 332.43 342.80 342.00 354.00
C 345.21 357.76 349.16 363.06 353.00 366.00
C 354.30 366.79 355.72 367.21 357.00 368.00
C 358.52 363.19 368.81 360.58 371.75 354.75 C 374.69 348.92 381.53 345.07 385.75 339.75 C 389.98 334.44 395.88 330.52 400.25 325.25 C 404.61 319.98 409.60 316.02 414.70 311.70 C 419.79 307.37 423.54 300.99 428.30 296.30 C 433.07 291.62 438.75 286.96 443.25 282.25 C 447.75 277.53 452.80 272.44 458.00 268.00
C 469.47 258.20 481.15 246.53 491.00 235.00
C 496.29 228.81 505.44 221.99 509.30 215.30 C 513.17 208.61 527.29 203.55 527.97 195.97 C 528.65 188.39 514.50 182.19 510.25 175.75 C 506.00 169.31 496.71 163.34 491.25 156.75 C 485.78 150.16 478.35 144.67 472.25 137.75 C 466.15 130.84 459.82 126.38 453.25 118.75 C 446.67 111.13 441.40 109.75 434.25 99.75 C 427.09 89.75 419.68 109.44 413.00 110.00
C 385.93 86.76 361.60 58.44 335.00 34.00
C 328.10 41.17 321.15 48.99 314.00 56.00 Z"/>
</g>
<g fill="#0BDB90" fill-opacity="1.00" stroke="None">
<path d="
M 102.00 157.00 
C 104.35 159.35 106.25 162.08 109.00 164.00
C 130.32 149.09 145.42 125.21 165.25 108.25 C 185.08 91.28 202.03 69.75 221.00 52.00
C 243.08 70.26 262.45 93.61 284.00 113.00
C 287.40 108.40 295.54 102.63 300.00 98.00
C 296.58 100.00 294.45 103.95 291.00 106.00
C 267.09 81.88 244.90 58.15 220.00 36.00
C 213.93 43.15 206.32 49.97 199.75 56.75 C 193.19 63.53 186.22 70.05 179.75 76.75 C 173.28 83.45 166.00 90.11 159.75 96.75 C 153.50 103.40 145.50 110.18 139.75 116.75 C 134.00 123.33 124.40 130.31 119.75 136.75 C 115.11 143.19 100.00 150.95 102.00 157.00 Z"/>
</g>
<!-- cuadrado mayor -->
<g fill="#0BDB90" fill-opacity="0.6" stroke="None">
<path d="
M 109.00 164.00 
C 109.23 164.16 109.00 165.00 109.00 165.00
C 103.30 176.66 88.46 183.17 80.75 193.75 C 73.05 204.34 59.53 212.22 52.00 223.00
C 60.59 235.28 74.67 244.55 86.00 252.00
C 85.10 259.44 95.09 264.29 101.00 267.00
C 102.40 274.47 109.67 281.40 117.00 283.00
C 118.12 290.46 125.82 297.97 133.00 299.00
C 131.68 303.94 136.88 305.03 138.00 309.00
C 151.96 322.96 167.21 337.04 180.00 352.00
C 192.65 366.80 208.31 379.32 221.00 394.00
C 247.92 370.24 273.45 342.72 299.00 317.00
C 298.21 316.38 297.55 314.80 297.00 314.00
C 302.65 314.12 306.49 304.88 310.00 306.00
C 310.98 296.17 318.38 298.85 323.75 291.75 C 329.12 284.65 331.18 285.39 337.75 276.75 C 344.33 268.11 357.08 257.63 364.03 249.03 C 370.98 240.42 374.25 244.56 376.00 236.00
C 382.46 235.14 385.50 227.07 391.00 224.00
C 359.71 190.61 324.93 158.97 294.00 125.00
C 291.31 122.31 286.65 118.37 285.00 115.00
C 284.80 114.60 285.00 114.00 285.00 114.00
C 284.88 113.74 284.27 113.21 284.00 113.00
C 262.45 93.61 243.08 70.26 221.00 52.00
C 202.03 69.75 185.08 91.28 165.25 108.25 C 145.42 125.21 130.32 149.09 109.00 164.00 Z"/>
</g>
<g fill="#0BDB90" fill-opacity="0.8" stroke="None">
<path d="
M 311.00 59.00 
C 314.34 63.77 316.27 65.79 321.25 69.75 C 326.22 73.71 323.55 78.35 318.75 81.75 C 313.95 85.15 312.21 89.59 307.75 92.75 C 303.29 95.92 301.41 101.15 296.75 103.75 C 292.09 106.35 290.01 113.57 287.00 116.00
C 291.45 120.16 295.15 125.08 299.75 129.25 C 304.36 133.42 308.76 138.44 313.25 142.75 C 317.74 147.06 321.85 151.36 326.25 155.75 C 330.65 160.14 335.45 164.81 339.75 169.25 C 344.06 173.69 349.16 178.31 353.25 182.75 C 357.33 187.20 362.65 191.28 366.25 195.75 C 369.84 200.23 377.11 204.72 379.75 209.25 C 382.39 213.78 393.00 218.13 393.00 223.00
C 393.00 227.84 382.94 231.76 380.25 236.25 C 377.55 240.73 370.41 245.27 366.75 249.75 C 363.09 254.23 357.30 258.78 353.25 263.25 C 349.19 267.72 344.50 271.76 340.25 276.25 C 336.00 280.74 331.06 285.20 326.75 289.75 C 322.44 294.30 317.49 298.61 313.25 303.25 C 309.00 307.89 303.56 311.91 300.00 317.00
C 302.50 317.90 305.55 319.88 307.00 322.00
C 314.03 322.74 321.81 336.65 327.00 341.00
C 332.21 344.72 337.40 349.40 342.00 354.00
C 332.43 342.80 320.45 330.98 309.00 321.00
C 298.46 311.81 314.53 304.14 321.75 295.75 C 328.98 287.36 338.09 279.91 345.75 271.75 C 353.41 263.60 361.88 255.77 369.75 247.75 C 377.62 239.73 385.74 231.45 394.00 224.00
C 386.71 213.43 375.17 204.41 366.25 194.75 C 357.32 185.09 346.47 175.82 337.75 166.25 C 329.03 156.68 317.25 147.28 309.25 137.75 C 301.25 128.22 281.21 118.47 294.00 108.00
C 303.05 98.76 312.21 89.29 321.25 80.25 C 330.29 71.20 321.24 73.34 320.00 64.00
C 315.81 65.33 315.21 60.86 312.00 60.00
C 311.80 58.30 313.20 57.31 314.00 56.00
C 312.97 57.01 311.94 57.73 311.00 59.00 Z"/>
</g>
<g fill="#0BDB90" fill-opacity="1.00" stroke="None">
<path d="
M 310.00 60.00 
C 315.09 63.56 327.32 72.71 321.25 78.25 C 315.18 83.78 309.46 90.73 303.25 96.25 C 297.04 101.76 291.76 109.28 285.00 114.00
C 285.00 114.00 284.80 114.60 285.00 115.00
C 285.25 115.51 286.66 115.68 287.00 116.00
C 290.01 113.57 292.09 106.35 296.75 103.75 C 301.41 101.15 303.29 95.92 307.75 92.75 C 312.21 89.59 313.95 85.15 318.75 81.75 C 323.55 78.35 326.22 73.71 321.25 69.75 C 316.27 65.79 314.34 63.77 311.00 59.00
C 311.00 59.00 310.25 58.75 310.00 59.00
C 310.00 59.00 309.80 59.60 310.00 60.00 Z"/>
</g>
<g fill="#0BDB90" fill-opacity="1.00" stroke="None">
<path d="
M 300.00 98.00 
C 295.54 102.63 287.40 108.40 284.00 113.00
C 284.27 113.21 284.88 113.74 285.00 114.00
C 291.76 109.28 297.04 101.76 303.25 96.25 C 309.46 90.73 315.18 83.78 321.25 78.25 C 327.32 72.71 315.09 63.56 310.00 60.00
C 313.21 66.38 321.50 69.12 323.00 76.00
C 315.85 82.67 306.84 90.88 300.00 98.00 Z"/>
</g>
<!-- fondo de la imagen -->
<g fill="#FFFFFF" fill-opacity="1.00" stroke="None"> 
<path d="
M 430.00 92.00 
C 455.06 117.35 479.46 146.47 507.00 170.00
C 515.75 177.47 523.00 187.66 533.00 193.00
C 530.77 200.09 524.03 206.32 518.22 212.22 C 512.42 218.13 505.41 224.49 499.75 230.75 C 494.09 237.02 486.98 242.47 480.77 248.77 C 474.56 255.07 467.86 261.08 462.23 267.23 C 456.60 273.38 451.32 277.96 445.23 284.23 C 439.15 290.51 432.25 296.28 426.77 302.77 C 421.29 309.26 413.64 315.21 408.25 321.25 C 402.86 327.30 394.97 334.05 389.92 339.92 C 384.87 345.79 370.71 354.97 382.00 357.00
C 379.28 356.83 376.33 357.61 374.00 356.00
C 369.65 360.76 365.91 366.32 360.00 369.00
C 359.53 369.13 359.00 369.00 359.00 369.00
C 357.39 369.10 357.99 368.60 357.00 368.00
C 355.72 367.21 354.30 366.79 353.00 366.00
C 344.07 360.57 335.16 350.88 328.00 344.00
C 328.00 349.38 317.70 353.02 314.75 357.75 C 311.80 362.48 304.85 367.07 300.75 371.75 C 296.65 376.43 291.87 380.79 287.25 385.25 C 282.63 389.70 277.70 394.60 273.25 399.25 C 268.79 403.89 263.47 408.38 259.08 413.08 C 254.70 417.78 250.25 421.65 245.75 426.75 C 241.25 431.85 236.27 436.06 231.75 440.75 C 227.24 445.44 221.99 449.96 218.00 455.00
C 192.93 434.08 171.40 408.69 148.00 387.00
C 140.25 394.75 131.16 407.76 121.00 412.00
C 120.84 412.23 119.49 412.08 119.00 412.00
C 111.46 410.79 108.19 400.33 101.75 396.25 C 95.31 392.17 91.01 383.98 84.75 379.25 C 78.49 374.52 73.15 367.97 67.25 362.75 C 61.34 357.54 55.54 351.47 52.00 346.00
C 42.71 337.48 34.58 327.19 25.00 319.00
C 18.57 313.50 12.91 306.91 7.00 301.00
C 4.91 298.91 2.23 296.86 0.00 295.00
L 0.00 797.00
L 563.00 797.00
L 563.00 116.00
C 551.46 125.40 542.07 138.72 530.00 147.00
C 505.19 120.73 478.58 95.59 453.00 70.00
C 448.74 69.75 444.96 79.12 441.10 81.10 C 437.24 83.08 434.42 89.72 430.00 92.00 Z"/>
</g>
<g fill="#0BDB90" fill-opacity="1.00" stroke="None">
<path d="
M 413.00 110.00 
C 419.68 109.44 427.09 89.75 434.25 99.75 C 441.40 109.75 446.67 111.13 453.25 118.75 C 459.82 126.38 466.15 130.84 472.25 137.75 C 478.35 144.67 485.78 150.16 491.25 156.75 C 496.71 163.34 506.00 169.31 510.25 175.75 C 514.50 182.19 528.65 188.39 527.97 195.97 C 527.29 203.55 513.17 208.61 509.30 215.30 C 505.44 221.99 496.29 228.81 491.00 235.00
C 500.02 228.03 505.81 219.18 514.75 211.75 C 523.69 204.32 533.54 195.16 522.75 187.25 C 511.96 179.34 508.45 171.58 499.25 163.75 C 490.04 155.92 484.28 148.00 475.75 140.25 C 467.22 132.49 460.57 124.38 452.25 116.75 C 443.93 109.13 437.14 99.90 428.00 94.00
C 423.70 99.77 417.35 104.18 413.00 110.00 Z"/>
</g>
<g fill="#0BDB90" fill-opacity="1.00" stroke="None">
<path d="
M 309.00 321.00 
C 340.72 287.12 376.41 255.42 407.00 221.00
C 401.84 216.91 397.05 211.34 392.25 206.75 C 387.45 202.17 382.99 197.26 378.25 192.75 C 373.51 188.24 368.98 183.08 364.23 178.77 C 359.48 174.46 355.12 169.37 350.25 164.75 C 345.38 160.13 340.25 154.42 335.70 150.30 C 331.16 146.17 326.18 140.53 321.75 136.25 C 317.31 131.97 310.51 127.36 307.75 122.25 C 304.99 117.14 293.86 113.25 294.00 108.00
C 281.21 118.47 301.25 128.22 309.25 137.75 C 317.25 147.28 329.03 156.68 337.75 166.25 C 346.47 175.82 357.32 185.09 366.25 194.75 C 375.17 204.41 386.71 213.43 394.00 224.00
C 385.74 231.45 377.62 239.73 369.75 247.75 C 361.88 255.77 353.41 263.60 345.75 271.75 C 338.09 279.91 328.98 287.36 321.75 295.75 C 314.53 304.14 298.46 311.81 309.00 321.00 Z"/>
</g>
<g fill="#0BDB90" fill-opacity="1.00" stroke="None">
<path d="
M 294.00 125.00 
C 326.75 157.75 360.11 190.48 393.00 223.00
C 393.00 218.13 382.39 213.78 379.75 209.25 C 377.11 204.72 369.84 200.23 366.25 195.75 C 362.65 191.28 357.33 187.20 353.25 182.75 C 349.16 178.31 344.06 173.69 339.75 169.25 C 335.45 164.81 330.65 160.14 326.25 155.75 C 321.85 151.36 317.74 147.06 313.25 142.75 C 308.76 138.44 304.36 133.42 299.75 129.25 C 295.15 125.08 291.45 120.16 287.00 116.00
C 286.66 115.68 285.25 115.51 285.00 115.00
C 286.65 118.37 291.31 122.31 294.00 125.00 Z"/>
</g>
<g fill="#0BDB90" fill-opacity="1.00" stroke="None">
<path d="
M 299.00 317.00 
C 299.16 316.77 300.00 317.00 300.00 317.00
C 303.56 311.91 309.00 307.89 313.25 303.25 C 317.49 298.61 322.44 294.30 326.75 289.75 C 331.06 285.20 336.00 280.74 340.25 276.25 C 344.50 271.76 349.19 267.72 353.25 263.25 C 357.30 258.78 363.09 254.23 366.75 249.75 C 370.41 245.27 377.55 240.73 380.25 236.25 C 382.94 231.76 393.00 227.84 393.00 223.00
C 360.11 190.48 326.75 157.75 294.00 125.00
C 324.93 158.97 359.71 190.61 391.00 224.00
C 385.50 227.07 382.46 235.14 376.00 236.00
C 374.25 244.56 370.98 240.42 364.03 249.03 C 357.08 257.63 344.33 268.11 337.75 276.75 C 331.18 285.39 329.12 284.65 323.75 291.75 C 318.38 298.85 310.98 296.17 310.00 306.00
C 306.49 304.88 302.65 314.12 297.00 314.00
C 297.55 314.80 298.21 316.38 299.00 317.00 Z"/>
</g>
<g fill="#0BDB90" fill-opacity="1.00" stroke="None">
<path d="
M 72.00 129.00 
C 71.81 132.52 81.83 136.62 84.25 140.75 C 86.67 144.88 92.88 148.87 96.25 152.75 C 99.62 156.64 104.69 161.32 108.00 165.00
C 108.16 164.77 109.00 165.00 109.00 165.00
C 109.00 165.00 109.23 164.16 109.00 164.00
C 106.25 162.08 104.35 159.35 102.00 157.00
C 98.02 153.02 90.84 145.71 86.75 142.25 C 82.66 138.78 75.59 127.95 72.00 129.00 Z"/>
</g>
<!-- fondo blanco parte izquirda -->
<g fill="#FFFFFF" fill-opacity="1.00" stroke="None">
<path d="
M 64.00 136.00 
C 44.33 159.02 20.36 178.74 0.00 201.00
L 0.00 267.00
C 5.03 266.36 12.34 259.84 16.75 258.75 C 21.15 257.65 28.47 249.94 32.00 252.00
C 32.17 251.57 32.00 251.00 32.00 251.00
C 33.17 248.32 40.90 241.65 43.23 239.23 C 45.56 236.81 53.12 228.79 56.00 229.00
C 54.51 227.51 51.80 224.92 51.00 223.00
C 54.29 215.12 64.69 210.74 69.75 203.75 C 74.81 196.76 83.18 191.59 88.75 184.75 C 94.33 177.91 102.94 172.24 108.00 165.00
C 104.69 161.32 99.62 156.64 96.25 152.75 C 92.88 148.87 86.67 144.88 84.25 140.75 C 81.83 136.62 71.81 132.52 72.00 129.00
C 69.61 129.70 65.80 134.20 64.00 136.00 Z"/>
</g>
<g fill="#FFFFFF" fill-opacity="1.00" stroke="None">
<path d="
M 51.00 223.00 
C 51.07 223.18 52.00 223.00 52.00 223.00
C 59.53 212.22 73.05 204.34 80.75 193.75 C 88.46 183.17 103.30 176.66 109.00 165.00
C 109.00 165.00 108.16 164.77 108.00 165.00
C 102.94 172.24 94.33 177.91 88.75 184.75 C 83.18 191.59 74.81 196.76 69.75 203.75 C 64.69 210.74 54.29 215.12 51.00 223.00 Z"/>
</g>
<g fill="#FFFFFF" fill-opacity="1.00" stroke="None">
<path d="
M 448.00 279.00 
C 433.21 296.30 414.74 310.75 400.00 328.00
C 387.86 342.20 370.65 353.76 360.00 369.00
C 365.91 366.32 369.65 360.76 374.00 356.00
C 376.33 357.61 379.28 356.83 382.00 357.00
C 370.71 354.97 384.87 345.79 389.92 339.92 C 394.97 334.05 402.86 327.30 408.25 321.25 C 413.64 315.21 421.29 309.26 426.77 302.77 C 432.25 296.28 439.15 290.51 445.23 284.23 C 451.32 277.96 456.60 273.38 462.23 267.23 C 467.86 261.08 474.56 255.07 480.77 248.77 C 486.98 242.47 494.09 237.02 499.75 230.75 C 505.41 224.49 512.42 218.13 518.22 212.22 C 524.03 206.32 530.77 200.09 533.00 193.00
C 523.00 187.66 515.75 177.47 507.00 170.00
C 513.64 176.64 522.95 184.94 528.75 192.25 C 534.55 199.56 517.77 207.96 512.75 214.75 C 507.73 221.55 497.38 229.22 491.25 236.25 C 485.12 243.27 476.31 250.59 469.75 257.75 C 463.20 264.91 454.88 272.12 448.00 279.00 Z"/>
</g>
<g fill="#0BDB90" fill-opacity="1.00" stroke="None">
<path d="
M 56.00 229.00 
C 60.73 233.73 65.96 238.69 71.00 243.00
C 94.52 263.10 116.17 287.17 138.00 309.00
C 136.88 305.03 131.68 303.94 133.00 299.00
C 125.82 297.97 118.12 290.46 117.00 283.00
C 109.67 281.40 102.40 274.47 101.00 267.00
C 95.09 264.29 85.10 259.44 86.00 252.00
C 74.67 244.55 60.59 235.28 52.00 223.00
C 52.00 223.00 51.07 223.18 51.00 223.00
C 51.80 224.92 54.51 227.51 56.00 229.00 Z"/>
</g>
<g fill="#FFFFFF" fill-opacity="1.00" stroke="None">
<path d="
M 32.00 251.00 
C 36.62 247.27 48.12 250.60 54.00 250.00 C 59.88 249.40 72.15 248.16 75.00 253.00
C 75.83 251.07 77.07 252.11 78.00 251.00
C 75.58 248.58 73.37 245.37 71.00 243.00
C 65.96 238.69 60.73 233.73 56.00 229.00
C 53.12 228.79 45.56 236.81 43.23 239.23 C 40.90 241.65 33.17 248.32 32.00 251.00 Z"/>
</g>
<g fill="#FFFFFF" fill-opacity="1.00" stroke="None">
<path d="
M 78.00 251.00 
C 102.10 275.10 128.88 298.12 151.00 324.00
C 160.00 333.00 171.71 341.57 179.00 352.00
C 179.25 351.75 180.00 352.00 180.00 352.00
C 167.21 337.04 151.96 322.96 138.00 309.00
C 116.17 287.17 94.52 263.10 71.00 243.00
C 73.37 245.37 75.58 248.58 78.00 251.00 Z"/>
</g>
<!-- fondo -->
<g fill="#FFFFFF" fill-opacity="1.00" stroke="None">
<path d="
M 32.00 251.00 
C 32.00 251.00 32.17 251.57 32.00 252.00
C 25.43 268.73 14.38 283.25 8.00 300.00
C 9.70 300.68 12.48 307.41 15.75 309.25 C 19.02 311.08 22.40 316.40 25.00 319.00
C 34.58 327.19 42.71 337.48 52.00 346.00
C 52.83 346.76 54.22 347.28 55.00 348.00
C 58.11 348.34 63.66 341.79 67.23 340.23 C 70.80 338.66 71.62 329.67 74.30 326.31 C 76.99 322.94 78.46 316.67 80.32 312.32 C 82.18 307.97 85.56 302.83 87.25 298.25 C 88.95 293.68 92.45 287.87 91.00 283.00
C 100.32 283.52 106.14 300.19 114.00 297.00
C 113.69 305.67 123.20 311.32 129.75 318.25 C 136.31 325.18 143.12 332.08 149.77 338.23 C 156.41 344.38 162.79 351.70 170.00 358.00
C 165.23 363.29 159.69 373.34 151.00 376.00
C 153.86 379.33 148.22 379.92 148.00 383.00
C 157.63 373.37 167.89 360.76 179.00 353.00
C 179.20 352.60 179.00 352.00 179.00 352.00
C 168.90 344.94 158.94 333.29 151.00 324.00
C 128.88 298.12 102.10 275.10 78.00 251.00
C 77.07 252.11 75.83 251.07 75.00 253.00
C 72.15 248.16 59.88 249.40 54.00 250.00 C 48.12 250.60 36.62 247.27 32.00 251.00 Z"/>
</g>
<!-- fondo -->
<g fill="#FFFFFF" fill-opacity="1.00" stroke="None">
<path d="
M 0.00 267.00 
L 0.00 295.00
C 2.23 296.86 4.91 298.91 7.00 301.00
C 7.29 301.06 7.87 300.35 8.00 300.00
C 14.38 283.25 25.43 268.73 32.00 252.00
C 28.47 249.94 21.15 257.65 16.75 258.75 C 12.34 259.84 5.03 266.36 0.00 267.00 Z"/>
</g>
<g fill="#FFFFFF" fill-opacity="1.00" stroke="None">
<path d="
M 357.00 368.00 
C 357.99 368.60 357.39 369.10 359.00 369.00
C 362.47 360.68 373.79 355.52 379.25 348.25 C 384.70 340.98 393.62 334.38 400.00 328.00
C 414.74 310.75 433.21 296.30 448.00 279.00
C 451.10 275.38 454.59 271.41 458.00 268.00
C 452.80 272.44 447.75 277.53 443.25 282.25 C 438.75 286.96 433.07 291.62 428.30 296.30 C 423.54 300.99 419.79 307.37 414.70 311.70 C 409.60 316.02 404.61 319.98 400.25 325.25 C 395.88 330.52 389.98 334.44 385.75 339.75 C 381.53 345.07 374.69 348.92 371.75 354.75 C 368.81 360.58 358.52 363.19 357.00 368.00 Z"/>
</g>
<g fill="#FFFFFF" fill-opacity="1.00" stroke="None">
<path d="
M 55.00 348.00 
C 63.59 355.89 71.13 365.42 80.00 373.00
C 89.98 381.53 98.80 391.80 108.00 401.00
C 111.79 404.24 115.21 409.06 119.00 412.00
C 119.49 412.08 120.84 412.23 121.00 412.00
C 121.23 411.66 121.00 411.00 121.00 411.00
C 123.67 405.53 130.12 401.83 134.25 397.25 C 138.38 392.67 143.67 387.33 148.00 383.00
C 148.22 379.92 153.86 379.33 151.00 376.00
C 159.69 373.34 165.23 363.29 170.00 358.00
C 162.79 351.70 156.41 344.38 149.77 338.23 C 143.12 332.08 136.31 325.18 129.75 318.25 C 123.20 311.32 113.69 305.67 114.00 297.00
C 106.14 300.19 100.32 283.52 91.00 283.00
C 92.45 287.87 88.95 293.68 87.25 298.25 C 85.56 302.83 82.18 307.97 80.32 312.32 C 78.46 316.67 76.99 322.94 74.30 326.31 C 71.62 329.67 70.80 338.66 67.23 340.23 C 63.66 341.79 58.11 348.34 55.00 348.00 Z"/>
</g>
<!-- FONDO -->
<g fill="#FFFFFF" fill-opacity="1.00" stroke="None">
<path d="
M 7.00 301.00 
C 12.91 306.91 18.57 313.50 25.00 319.00
C 22.40 316.40 19.02 311.08 15.75 309.25 C 12.48 307.41 9.70 300.68 8.00 300.00
C 7.87 300.35 7.29 301.06 7.00 301.00 Z"/>
</g>
<!-- FONDO -->
<g fill="#FFFFFF" fill-opacity="1.00" stroke="None">
<path d="
M 180.00 352.00 
C 180.00 352.00 179.25 351.75 179.00 352.00
C 179.00 352.00 179.20 352.60 179.00 353.00
C 177.86 355.34 174.78 358.22 173.00 360.00
C 172.85 360.45 172.76 361.69 173.00 362.00
C 186.32 379.21 206.70 393.68 222.00 408.00
C 249.83 379.33 278.38 350.79 307.00 323.00
C 306.76 322.68 307.00 322.00 307.00 322.00
C 305.55 319.88 302.50 317.90 300.00 317.00
C 300.00 317.00 299.16 316.77 299.00 317.00
C 273.45 342.72 247.92 370.24 221.00 394.00
C 208.31 379.32 192.65 366.80 180.00 352.00 Z"/>
</g>
<g fill="#0BDB90" fill-opacity="1.00" stroke="None">
<path d="
M 307.00 323.00 
C 310.06 327.01 316.04 331.48 320.00 335.00
C 322.23 336.99 324.61 339.29 327.00 341.00
C 321.81 336.65 314.03 322.74 307.00 322.00
C 307.00 322.00 306.76 322.68 307.00 323.00 Z"/>
</g>
<g fill="#FFFFFF" fill-opacity="1.00" stroke="None">
<path d="
M 173.00 362.00 
C 168.29 367.27 157.31 372.10 160.00 380.00
C 155.82 373.82 152.15 383.80 148.00 387.00
C 171.40 408.69 192.93 434.08 218.00 455.00
C 221.99 449.96 227.24 445.44 231.75 440.75 C 236.27 436.06 241.25 431.85 245.75 426.75 C 250.25 421.65 254.70 417.78 259.08 413.08 C 263.47 408.38 268.79 403.89 273.25 399.25 C 277.70 394.60 282.63 389.70 287.25 385.25 C 291.87 380.79 296.65 376.43 300.75 371.75 C 304.85 367.07 311.80 362.48 314.75 357.75 C 317.70 353.02 328.00 349.38 328.00 344.00
C 325.20 341.31 322.65 337.76 320.00 335.00
C 316.04 331.48 310.06 327.01 307.00 323.00
C 278.38 350.79 249.83 379.33 222.00 408.00
C 206.70 393.68 186.32 379.21 173.00 362.00 Z"/>
</g>
<g fill="#FFFFFF" fill-opacity="1.00" stroke="None">
<path d="
M 179.00 352.00 
C 171.71 341.57 160.00 333.00 151.00 324.00
C 158.94 333.29 168.90 344.94 179.00 352.00 Z"/>
</g>
<g fill="#FFFFFF" fill-opacity="1.00" stroke="None">
<path d="
M 359.00 369.00 
C 359.00 369.00 359.53 369.13 360.00 369.00
C 370.65 353.76 387.86 342.20 400.00 328.00
C 393.62 334.38 384.70 340.98 379.25 348.25 C 373.79 355.52 362.47 360.68 359.00 369.00 Z"/>
</g>
<g fill="#FFFFFF" fill-opacity="1.00" stroke="None">
<path d="
M 328.00 344.00 
C 335.16 350.88 344.07 360.57 353.00 366.00
C 349.16 363.06 345.21 357.76 342.00 354.00
C 337.40 349.40 332.21 344.72 327.00 341.00
C 324.61 339.29 322.23 336.99 320.00 335.00
C 322.65 337.76 325.20 341.31 328.00 344.00 Z"/>
</g>
<g fill="#FFFFFF" fill-opacity="1.00" stroke="None">
<path d="
M 119.00 412.00 
C 115.21 409.06 111.79 404.24 108.00 401.00
C 98.02 392.47 89.20 382.20 80.00 373.00
C 71.13 365.42 63.59 355.89 55.00 348.00
C 54.22 347.28 52.83 346.76 52.00 346.00
C 55.54 351.47 61.34 357.54 67.25 362.75 C 73.15 367.97 78.49 374.52 84.75 379.25 C 91.01 383.98 95.31 392.17 101.75 396.25 C 108.19 400.33 111.46 410.79 119.00 412.00 Z"/>
</g>
<g fill="#FFFFFF" fill-opacity="1.00" stroke="None">
<path d="
M 148.00 383.00 
C 143.67 387.33 138.38 392.67 134.25 397.25 C 130.12 401.83 123.67 405.53 121.00 411.00
C 130.73 404.21 138.04 393.94 146.75 385.75 C 155.47 377.57 164.60 368.40 173.00 360.00
C 174.78 358.22 177.86 355.34 179.00 353.00
C 167.89 360.76 157.63 373.37 148.00 383.00 Z"/>
</g>
<g fill="#FFFFFF" fill-opacity="1.00" stroke="None">
<path d="
M 121.00 411.00 
C 121.00 411.00 121.23 411.66 121.00 412.00
C 131.16 407.76 140.25 394.75 148.00 387.00
C 152.15 383.80 155.82 373.82 160.00 380.00
C 157.31 372.10 168.29 367.27 173.00 362.00
C 172.76 361.69 172.85 360.45 173.00 360.00
C 164.60 368.40 155.47 377.57 146.75 385.75 C 138.04 393.94 130.73 404.21 121.00 411.00 Z"/>
</g>
<g fill="#FFFFFF" fill-opacity="1.00" stroke="None">
<path d="
M 108.00 401.00 
C 98.80 391.80 89.98 381.53 80.00 373.00
C 89.20 382.20 98.02 392.47 108.00 401.00 Z"/>
</g>
</svg>