<?xml version="1.0" standalone="no"?>
<!DOCTYPE svg PUBLIC "-//W3C//DTD SVG 20010904//EN"
 "http://www.w3.org/TR/2001/REC-SVG-20010904/DTD/svg10.dtd">
<svg version="1.0" xmlns="http://www.w3.org/2000/svg"
 width="7000.000000pt" height="4375.000000pt" viewBox="0 0 7000.000000 4375.000000"
 preserveAspectRatio="xMidYMid meet">

<g transform="translate(0.000000,4375.000000) scale(0.100000,-0.100000)"
fill="#0BDB90" stroke="none">
<path d="M60000 34463 c-367 -15 -870 -55 -1085 -88 -16 -2 -95 -14 -175 -25
-872 -126 -1748 -339 -2667 -650 -472 -160 -1220 -447 -1548 -595 -33 -15
-141 -62 -240 -105 -182 -79 -517 -231 -655 -297 -41 -20 -145 -69 -230 -110
-506 -242 -1370 -684 -2100 -1075 -118 -63 -255 -137 -305 -163 -49 -26 -166
-89 -260 -140 -242 -132 -418 -226 -588 -317 -82 -43 -197 -105 -255 -137
-136 -75 -495 -266 -772 -411 -118 -62 -258 -135 -310 -163 -202 -107 -1244
-628 -1425 -712 -104 -48 -266 -124 -360 -168 -93 -43 -192 -88 -219 -99 -27
-10 -102 -43 -166 -73 -304 -140 -1059 -444 -1455 -585 -311 -111 -948 -324
-1180 -395 -115 -35 -246 -75 -290 -90 -44 -14 -183 -55 -310 -91 -126 -36
-298 -85 -381 -109 -84 -25 -241 -67 -350 -95 -110 -28 -318 -82 -464 -120
-146 -38 -346 -87 -445 -110 -99 -23 -292 -68 -430 -100 -779 -183 -2068 -425
-3065 -575 -810 -122 -778 -118 -1975 -265 -483 -60 -1002 -113 -1755 -180
-124 -11 -272 -24 -330 -30 -573 -54 -1562 -126 -2485 -180 -192 -11 -420 -25
-505 -30 -85 -6 -191 -12 -235 -15 -678 -44 -1688 -86 -2460 -102 -653 -15
-2710 -6 -2855 12 -19 2 -136 7 -260 10 -124 3 -265 8 -315 10 -49 3 -234 12
-410 21 -842 40 -2390 169 -3055 254 -85 11 -317 41 -515 65 -593 74 -1236
170 -1915 286 -563 96 -1562 296 -2210 444 -283 64 -968 230 -1090 265 -58 16
-195 52 -305 80 -396 102 -1679 472 -1900 549 -33 11 -163 52 -290 91 -126 39
-304 96 -395 127 -91 30 -253 84 -360 118 -433 140 -1524 525 -1955 690 -77
29 -237 89 -355 133 -307 115 -1001 386 -1300 509 -74 31 -227 93 -340 139
-242 97 -523 214 -780 323 -102 44 -230 98 -285 121 -55 23 -134 57 -175 75
-41 19 -158 70 -260 114 -339 146 -1012 444 -1218 540 -84 39 -155 71 -157 71
-3 0 -97 42 -208 94 -111 52 -267 124 -347 161 -570 264 -590 274 -1195 563
-115 55 -298 143 -405 195 -107 52 -287 139 -400 193 -220 106 -2102 1048
-2822 1413 -241 121 -440 221 -443 221 -3 0 -5 -2320 -5 -5156 l0 -5156 22 4
c36 8 642 164 748 193 52 14 219 58 370 96 151 39 329 85 395 104 66 18 237
63 380 100 143 37 350 91 460 120 110 29 256 67 325 84 69 16 265 64 435 106
538 132 1148 267 1685 371 946 184 1831 318 2565 389 1493 143 2603 150 3910
24 453 -43 742 -84 1275 -179 694 -125 1215 -242 1945 -439 323 -87 365 -99
760 -215 632 -186 1572 -497 2660 -879 149 -52 398 -140 555 -195 157 -55 299
-105 315 -112 44 -18 611 -218 905 -320 140 -49 282 -98 315 -110 305 -109
1350 -453 1675 -550 113 -34 252 -77 310 -95 58 -19 164 -50 235 -70 72 -20
234 -66 360 -102 658 -186 1651 -412 2300 -522 1174 -200 2028 -290 3295 -346
377 -17 1423 -20 1780 -5 851 35 1602 91 2285 171 443 52 1304 178 1630 238
773 143 962 181 1530 309 290 66 1167 284 1335 332 41 12 200 55 352 96 153
40 362 98 465 128 104 30 274 78 378 106 105 29 278 78 385 110 107 32 256 75
330 95 74 20 223 63 330 95 202 61 650 190 1090 315 140 40 327 94 415 120
148 43 502 143 890 249 768 212 1533 406 2006 511 85 19 214 48 285 65 288 69
1181 245 1519 300 552 90 1150 170 1563 210 649 63 1129 85 1847 85 700 0
1165 -18 1900 -76 557 -43 1453 -143 2093 -235 382 -54 1329 -209 1617 -264
88 -17 293 -55 455 -85 162 -30 372 -70 465 -89 94 -19 357 -73 585 -120 228
-46 537 -112 685 -145 149 -33 378 -83 510 -111 132 -29 313 -69 401 -91 89
-21 264 -61 390 -89 126 -28 351 -80 499 -115 149 -35 380 -90 515 -120 135
-31 344 -80 465 -110 121 -30 301 -72 400 -94 99 -23 263 -61 365 -86 201 -50
444 -107 555 -131 38 -8 191 -44 340 -80 148 -36 380 -89 515 -119 135 -30
340 -77 455 -104 116 -27 318 -73 450 -101 132 -28 377 -82 545 -120 168 -38
391 -87 495 -109 105 -22 280 -61 390 -86 110 -26 315 -71 455 -100 140 -30
365 -79 500 -110 135 -31 286 -64 335 -75 320 -68 532 -114 662 -144 81 -19
247 -55 368 -81 226 -47 514 -110 665 -145 140 -33 203 -47 475 -104 143 -30
341 -74 440 -96 99 -23 306 -68 460 -100 154 -33 379 -82 500 -109 121 -27
330 -73 465 -101 135 -28 373 -80 530 -115 157 -35 312 -69 345 -75 33 -6 68
-14 77 -16 17 -5 18 279 18 5765 0 4603 -3 5771 -13 5778 -6 4 -86 35 -177 69
-91 33 -232 86 -315 117 -82 31 -231 86 -330 122 -99 36 -277 101 -395 145
-118 43 -258 95 -310 115 -52 20 -180 68 -285 105 -104 37 -215 78 -245 90
-196 78 -1100 396 -1445 507 -110 36 -281 91 -380 123 -99 32 -299 93 -445
135 -146 42 -310 90 -365 106 -180 54 -1035 266 -1260 313 -121 25 -308 64
-415 86 -351 72 -832 148 -1365 214 -349 44 -726 75 -1150 95 -163 8 -945 11
-1105 4z"/>
</g>
</svg>
